<?xml version="1.0" encoding="us-ascii" standalone="no"?><svg xmlns="http://www.w3.org/2000/svg" xmlns:xlink="http://www.w3.org/1999/xlink" contentStyleType="text/css" height="683px" preserveAspectRatio="none" style="width:630px;height:683px;background:#FFFFFF;" version="1.1" viewBox="0 0 630 683" width="630px" zoomAndPan="magnify"><defs/><g><!--class AdminPanel--><g id="elem_AdminPanel"><rect codeLine="2" fill="#F1F1F1" height="188.875" id="AdminPanel" rx="2.5" ry="2.5" style="stroke:#181818;stroke-width:0.5;" width="212" x="7" y="24.5"/><ellipse cx="71.25" cy="40.5" fill="#ADD1B2" rx="11" ry="11" style="stroke:#181818;stroke-width:1.0;"/><path d="M74.0156,36.375 Q74.1719,36.1563 74.3594,36.0469 Q74.5469,35.9375 74.7656,35.9375 Q75.1406,35.9375 75.375,36.2031 Q75.6094,36.4531 75.6094,37.0625 L75.6094,38.5156 Q75.6094,39.125 75.375,39.3906 Q75.1406,39.6563 74.7656,39.6563 Q74.4219,39.6563 74.2188,39.4531 Q74.0156,39.2656 73.9063,38.75 Q73.8594,38.3906 73.6719,38.2031 Q73.3438,37.8281 72.7344,37.6094 Q72.125,37.3906 71.5,37.3906 Q70.7344,37.3906 70.0938,37.7188 Q69.4688,38.0469 68.9688,38.7969 Q68.4844,39.5469 68.4844,40.5781 L68.4844,41.6719 Q68.4844,42.9063 69.375,43.7344 Q70.2656,44.5469 71.8594,44.5469 Q72.7969,44.5469 73.4531,44.2969 Q73.8438,44.1406 74.2656,43.7031 Q74.5313,43.4375 74.6719,43.3594 Q74.8281,43.2813 75.0313,43.2813 Q75.3594,43.2813 75.6094,43.5469 Q75.875,43.7969 75.875,44.1406 Q75.875,44.4844 75.5313,44.8906 Q75.0313,45.4688 74.2344,45.7969 Q73.1563,46.25 71.8594,46.25 Q70.3438,46.25 69.1406,45.625 Q68.1563,45.125 67.4688,44.0625 Q66.7813,42.9844 66.7813,41.7031 L66.7813,40.5469 Q66.7813,39.2188 67.3906,38.0781 Q68.0156,36.9219 69.1094,36.3125 Q70.2031,35.6875 71.4375,35.6875 Q72.1719,35.6875 72.8125,35.8594 Q73.4688,36.0156 74.0156,36.375 Z " fill="#000000"/><text fill="#000000" font-family="sans-serif" font-size="14" lengthAdjust="spacing" textLength="75" x="91.75" y="46.2285">AdminPanel</text><line style="stroke:#181818;stroke-width:0.5;" x1="8" x2="218" y1="56.5" y2="56.5"/><rect fill="none" height="6" style="stroke:#C82930;stroke-width:1.0;" width="6" x="15" y="67.8047"/><text fill="#000000" font-family="sans-serif" font-size="14" lengthAdjust="spacing" textLength="126" x="27" y="75.0332">cursos: List&lt;Curso&gt;</text><rect fill="none" height="6" style="stroke:#C82930;stroke-width:1.0;" width="6" x="15" y="85.4141"/><text fill="#000000" font-family="sans-serif" font-size="14" lengthAdjust="spacing" textLength="136" x="27" y="92.6426">instance: AdminPanel</text><line style="stroke:#181818;stroke-width:1.0;" x1="8" x2="218" y1="99.7188" y2="99.7188"/><rect fill="#F24D5C" height="6" style="stroke:#C82930;stroke-width:1.0;" width="6" x="15" y="111.0234"/><text fill="#000000" font-family="sans-serif" font-size="14" lengthAdjust="spacing" textLength="85" x="27" y="118.252">AdminPanel()</text><rect fill="#F24D5C" height="6" style="stroke:#C82930;stroke-width:1.0;" width="6" x="15" y="128.6328"/><text fill="#000000" font-family="sans-serif" font-size="14" lengthAdjust="spacing" textLength="28" x="27" y="135.8613">init()</text><ellipse cx="18" cy="149.2422" fill="#84BE84" rx="3" ry="3" style="stroke:#038048;stroke-width:1.0;"/><text fill="#000000" font-family="sans-serif" font-size="14" lengthAdjust="spacing" textLength="166" x="27" y="153.4707">getInstance(): AdminPanel</text><ellipse cx="18" cy="166.8516" fill="#84BE84" rx="3" ry="3" style="stroke:#038048;stroke-width:1.0;"/><text fill="#000000" font-family="sans-serif" font-size="14" lengthAdjust="spacing" textLength="179" x="27" y="171.0801">agregarCurso(curso: Curso)</text><ellipse cx="18" cy="184.4609" fill="#84BE84" rx="3" ry="3" style="stroke:#038048;stroke-width:1.0;"/><text fill="#000000" font-family="sans-serif" font-size="14" lengthAdjust="spacing" textLength="178" x="27" y="188.6895">eliminarCurso(curso: Curso)</text><ellipse cx="18" cy="202.0703" fill="#84BE84" rx="3" ry="3" style="stroke:#038048;stroke-width:1.0;"/><text fill="#000000" font-family="sans-serif" font-size="14" lengthAdjust="spacing" textLength="186" x="27" y="206.2988">modificarCurso(curso: Curso)</text></g><!--class Curso--><g id="elem_Curso"><rect codeLine="14" fill="#F1F1F1" height="224.0938" id="Curso" rx="2.5" ry="2.5" style="stroke:#181818;stroke-width:0.5;" width="319" x="304.5" y="7"/><ellipse cx="440.75" cy="23" fill="#ADD1B2" rx="11" ry="11" style="stroke:#181818;stroke-width:1.0;"/><path d="M443.5156,18.875 Q443.6719,18.6563 443.8594,18.5469 Q444.0469,18.4375 444.2656,18.4375 Q444.6406,18.4375 444.875,18.7031 Q445.1094,18.9531 445.1094,19.5625 L445.1094,21.0156 Q445.1094,21.625 444.875,21.8906 Q444.6406,22.1563 444.2656,22.1563 Q443.9219,22.1563 443.7188,21.9531 Q443.5156,21.7656 443.4063,21.25 Q443.3594,20.8906 443.1719,20.7031 Q442.8438,20.3281 442.2344,20.1094 Q441.625,19.8906 441,19.8906 Q440.2344,19.8906 439.5938,20.2188 Q438.9688,20.5469 438.4688,21.2969 Q437.9844,22.0469 437.9844,23.0781 L437.9844,24.1719 Q437.9844,25.4063 438.875,26.2344 Q439.7656,27.0469 441.3594,27.0469 Q442.2969,27.0469 442.9531,26.7969 Q443.3438,26.6406 443.7656,26.2031 Q444.0313,25.9375 444.1719,25.8594 Q444.3281,25.7813 444.5313,25.7813 Q444.8594,25.7813 445.1094,26.0469 Q445.375,26.2969 445.375,26.6406 Q445.375,26.9844 445.0313,27.3906 Q444.5313,27.9688 443.7344,28.2969 Q442.6563,28.75 441.3594,28.75 Q439.8438,28.75 438.6406,28.125 Q437.6563,27.625 436.9688,26.5625 Q436.2813,25.4844 436.2813,24.2031 L436.2813,23.0469 Q436.2813,21.7188 436.8906,20.5781 Q437.5156,19.4219 438.6094,18.8125 Q439.7031,18.1875 440.9375,18.1875 Q441.6719,18.1875 442.3125,18.3594 Q442.9688,18.5156 443.5156,18.875 Z " fill="#000000"/><text fill="#000000" font-family="sans-serif" font-size="14" lengthAdjust="spacing" textLength="38" x="461.25" y="28.7285">Curso</text><line style="stroke:#181818;stroke-width:0.5;" x1="305.5" x2="622.5" y1="39" y2="39"/><rect fill="none" height="6" style="stroke:#C82930;stroke-width:1.0;" width="6" x="312.5" y="50.3047"/><text fill="#000000" font-family="sans-serif" font-size="14" lengthAdjust="spacing" textLength="79" x="324.5" y="57.5332">icono: String</text><rect fill="none" height="6" style="stroke:#C82930;stroke-width:1.0;" width="6" x="312.5" y="67.9141"/><text fill="#000000" font-family="sans-serif" font-size="14" lengthAdjust="spacing" textLength="75" x="324.5" y="75.1426">titulo: String</text><rect fill="none" height="6" style="stroke:#C82930;stroke-width:1.0;" width="6" x="312.5" y="85.5234"/><text fill="#000000" font-family="sans-serif" font-size="14" lengthAdjust="spacing" textLength="117" x="324.5" y="92.752">descripcion: String</text><rect fill="none" height="6" style="stroke:#C82930;stroke-width:1.0;" width="6" x="312.5" y="103.1328"/><text fill="#000000" font-family="sans-serif" font-size="14" lengthAdjust="spacing" textLength="116" x="324.5" y="110.3613">pilares: List&lt;Pilar&gt;</text><line style="stroke:#181818;stroke-width:1.0;" x1="305.5" x2="622.5" y1="117.4375" y2="117.4375"/><text fill="#000000" font-family="sans-serif" font-size="14" lengthAdjust="spacing" textLength="114" x="324.5" y="135.9707">// getters y setters</text><ellipse cx="315.5" cy="149.3516" fill="#84BE84" rx="3" ry="3" style="stroke:#038048;stroke-width:1.0;"/><text fill="#000000" font-family="sans-serif" font-size="14" lengthAdjust="spacing" textLength="151" x="324.5" y="153.5801">agregarPilar(pilar: Pilar)</text><ellipse cx="315.5" cy="166.9609" fill="#84BE84" rx="3" ry="3" style="stroke:#038048;stroke-width:1.0;"/><text fill="#000000" font-family="sans-serif" font-size="14" lengthAdjust="spacing" textLength="150" x="324.5" y="171.1895">eliminarPilar(pilar: Pilar)</text><ellipse cx="315.5" cy="184.5703" fill="#84BE84" rx="3" ry="3" style="stroke:#038048;stroke-width:1.0;"/><text fill="#000000" font-family="sans-serif" font-size="14" lengthAdjust="spacing" textLength="158" x="324.5" y="188.7988">modificarPilar(pilar: Pilar)</text><ellipse cx="315.5" cy="202.1797" fill="#84BE84" rx="3" ry="3" style="stroke:#038048;stroke-width:1.0;"/><text fill="#000000" font-family="sans-serif" font-size="14" lengthAdjust="spacing" text-decoration="underline" textLength="259" x="324.5" y="206.4082">cambiarOrdenPilar(pilar: Pilar, indice: int)</text><ellipse cx="315.5" cy="219.7891" fill="#84BE84" rx="3" ry="3" style="stroke:#038048;stroke-width:1.0;"/><text fill="#000000" font-family="sans-serif" font-size="14" lengthAdjust="spacing" text-decoration="underline" textLength="293" x="324.5" y="224.0176">cambiarOrdenPilares(pilar1: Pilar, pilar2: Pilar)</text></g><!--class Pilar--><g id="elem_Pilar"><rect codeLine="28" fill="#F1F1F1" height="171.2656" id="Pilar" rx="2.5" ry="2.5" style="stroke:#181818;stroke-width:0.5;" width="271" x="328.5" y="309"/><ellipse cx="445.75" cy="325" fill="#ADD1B2" rx="11" ry="11" style="stroke:#181818;stroke-width:1.0;"/><path d="M448.5156,320.875 Q448.6719,320.6563 448.8594,320.5469 Q449.0469,320.4375 449.2656,320.4375 Q449.6406,320.4375 449.875,320.7031 Q450.1094,320.9531 450.1094,321.5625 L450.1094,323.0156 Q450.1094,323.625 449.875,323.8906 Q449.6406,324.1563 449.2656,324.1563 Q448.9219,324.1563 448.7188,323.9531 Q448.5156,323.7656 448.4063,323.25 Q448.3594,322.8906 448.1719,322.7031 Q447.8438,322.3281 447.2344,322.1094 Q446.625,321.8906 446,321.8906 Q445.2344,321.8906 444.5938,322.2188 Q443.9688,322.5469 443.4688,323.2969 Q442.9844,324.0469 442.9844,325.0781 L442.9844,326.1719 Q442.9844,327.4063 443.875,328.2344 Q444.7656,329.0469 446.3594,329.0469 Q447.2969,329.0469 447.9531,328.7969 Q448.3438,328.6406 448.7656,328.2031 Q449.0313,327.9375 449.1719,327.8594 Q449.3281,327.7813 449.5313,327.7813 Q449.8594,327.7813 450.1094,328.0469 Q450.375,328.2969 450.375,328.6406 Q450.375,328.9844 450.0313,329.3906 Q449.5313,329.9688 448.7344,330.2969 Q447.6563,330.75 446.3594,330.75 Q444.8438,330.75 443.6406,330.125 Q442.6563,329.625 441.9688,328.5625 Q441.2813,327.4844 441.2813,326.2031 L441.2813,325.0469 Q441.2813,323.7188 441.8906,322.5781 Q442.5156,321.4219 443.6094,320.8125 Q444.7031,320.1875 445.9375,320.1875 Q446.6719,320.1875 447.3125,320.3594 Q447.9688,320.5156 448.5156,320.875 Z " fill="#000000"/><text fill="#000000" font-family="sans-serif" font-size="14" lengthAdjust="spacing" textLength="28" x="466.25" y="330.7285">Pilar</text><line style="stroke:#181818;stroke-width:0.5;" x1="329.5" x2="598.5" y1="341" y2="341"/><rect fill="none" height="6" style="stroke:#C82930;stroke-width:1.0;" width="6" x="336.5" y="352.3047"/><text fill="#000000" font-family="sans-serif" font-size="14" lengthAdjust="spacing" textLength="75" x="348.5" y="359.5332">titulo: String</text><rect fill="none" height="6" style="stroke:#C82930;stroke-width:1.0;" width="6" x="336.5" y="369.9141"/><text fill="#000000" font-family="sans-serif" font-size="14" lengthAdjust="spacing" textLength="60" x="348.5" y="377.1426">indice: int</text><rect fill="none" height="6" style="stroke:#C82930;stroke-width:1.0;" width="6" x="336.5" y="387.5234"/><text fill="#000000" font-family="sans-serif" font-size="14" lengthAdjust="spacing" textLength="174" x="348.5" y="394.752">actividades: List&lt;Actividad&gt;</text><line style="stroke:#181818;stroke-width:1.0;" x1="329.5" x2="598.5" y1="401.8281" y2="401.8281"/><text fill="#000000" font-family="sans-serif" font-size="14" lengthAdjust="spacing" textLength="114" x="348.5" y="420.3613">// getters y setters</text><ellipse cx="339.5" cy="433.7422" fill="#84BE84" rx="3" ry="3" style="stroke:#038048;stroke-width:1.0;"/><text fill="#000000" font-family="sans-serif" font-size="14" lengthAdjust="spacing" textLength="238" x="348.5" y="437.9707">agregarActividad(actividad: Actividad)</text><ellipse cx="339.5" cy="451.3516" fill="#84BE84" rx="3" ry="3" style="stroke:#038048;stroke-width:1.0;"/><text fill="#000000" font-family="sans-serif" font-size="14" lengthAdjust="spacing" textLength="237" x="348.5" y="455.5801">eliminarActividad(actividad: Actividad)</text><ellipse cx="339.5" cy="468.9609" fill="#84BE84" rx="3" ry="3" style="stroke:#038048;stroke-width:1.0;"/><text fill="#000000" font-family="sans-serif" font-size="14" lengthAdjust="spacing" textLength="245" x="348.5" y="473.1895">modificarActividad(actividad: Actividad)</text></g><!--class Actividad--><g id="elem_Actividad"><rect codeLine="39" fill="#F1F1F1" height="118.4375" id="Actividad" rx="2.5" ry="2.5" style="stroke:#181818;stroke-width:0.5;" width="204" x="362" y="558"/><ellipse cx="431.25" cy="574" fill="#ADD1B2" rx="11" ry="11" style="stroke:#181818;stroke-width:1.0;"/><path d="M434.0156,569.875 Q434.1719,569.6563 434.3594,569.5469 Q434.5469,569.4375 434.7656,569.4375 Q435.1406,569.4375 435.375,569.7031 Q435.6094,569.9531 435.6094,570.5625 L435.6094,572.0156 Q435.6094,572.625 435.375,572.8906 Q435.1406,573.1563 434.7656,573.1563 Q434.4219,573.1563 434.2188,572.9531 Q434.0156,572.7656 433.9063,572.25 Q433.8594,571.8906 433.6719,571.7031 Q433.3438,571.3281 432.7344,571.1094 Q432.125,570.8906 431.5,570.8906 Q430.7344,570.8906 430.0938,571.2188 Q429.4688,571.5469 428.9688,572.2969 Q428.4844,573.0469 428.4844,574.0781 L428.4844,575.1719 Q428.4844,576.4063 429.375,577.2344 Q430.2656,578.0469 431.8594,578.0469 Q432.7969,578.0469 433.4531,577.7969 Q433.8438,577.6406 434.2656,577.2031 Q434.5313,576.9375 434.6719,576.8594 Q434.8281,576.7813 435.0313,576.7813 Q435.3594,576.7813 435.6094,577.0469 Q435.875,577.2969 435.875,577.6406 Q435.875,577.9844 435.5313,578.3906 Q435.0313,578.9688 434.2344,579.2969 Q433.1563,579.75 431.8594,579.75 Q430.3438,579.75 429.1406,579.125 Q428.1563,578.625 427.4688,577.5625 Q426.7813,576.4844 426.7813,575.2031 L426.7813,574.0469 Q426.7813,572.7188 427.3906,571.5781 Q428.0156,570.4219 429.1094,569.8125 Q430.2031,569.1875 431.4375,569.1875 Q432.1719,569.1875 432.8125,569.3594 Q433.4688,569.5156 434.0156,569.875 Z " fill="#000000"/><text fill="#000000" font-family="sans-serif" font-size="14" lengthAdjust="spacing" textLength="57" x="451.75" y="579.7285">Actividad</text><line style="stroke:#181818;stroke-width:0.5;" x1="363" x2="565" y1="590" y2="590"/><rect fill="none" height="6" style="stroke:#C82930;stroke-width:1.0;" width="6" x="370" y="601.3047"/><text fill="#000000" font-family="sans-serif" font-size="14" lengthAdjust="spacing" textLength="93" x="382" y="608.5332">nombre: String</text><rect fill="none" height="6" style="stroke:#C82930;stroke-width:1.0;" width="6" x="370" y="618.9141"/><text fill="#000000" font-family="sans-serif" font-size="14" lengthAdjust="spacing" textLength="68" x="382" y="626.1426">tipo: String</text><rect fill="none" height="6" style="stroke:#C82930;stroke-width:1.0;" width="6" x="370" y="636.5234"/><text fill="#000000" font-family="sans-serif" font-size="14" lengthAdjust="spacing" textLength="178" x="382" y="643.752">estaDesbloqueada: boolean</text><line style="stroke:#181818;stroke-width:1.0;" x1="363" x2="565" y1="650.8281" y2="650.8281"/><text fill="#000000" font-family="sans-serif" font-size="14" lengthAdjust="spacing" textLength="114" x="368" y="669.3613">// getters y setters</text></g><!--link AdminPanel to Curso--><g id="link_AdminPanel_Curso"><path codeLine="47" d="M219.26,119 C246.1,119 275.51,119 304.34,119 " fill="none" id="AdminPanel-Curso" style="stroke:#181818;stroke-width:1.0;"/><text fill="#000000" font-family="sans-serif" font-size="13" lengthAdjust="spacing" textLength="49" x="237.25" y="112.4951">contiene</text><text fill="#000000" font-family="sans-serif" font-size="13" lengthAdjust="spacing" textLength="7" x="226.9775" y="115.9494">1</text><text fill="#000000" font-family="sans-serif" font-size="13" lengthAdjust="spacing" textLength="20" x="276.6523" y="132.8635">0..*</text></g><!--reverse link Curso to Pilar--><g id="link_Curso_Pilar"><path codeLine="48" d="M464,243.24 C464,269.12 464,284.27 464,308.79 " fill="none" id="Curso-backto-Pilar" style="stroke:#181818;stroke-width:1.0;"/><polygon fill="#181818" points="464,231.24,460,237.24,464,243.24,468,237.24,464,231.24" style="stroke:#181818;stroke-width:1.0;"/><text fill="#000000" font-family="sans-serif" font-size="13" lengthAdjust="spacing" textLength="49" x="465" y="275.4951">contiene</text><text fill="#000000" font-family="sans-serif" font-size="13" lengthAdjust="spacing" textLength="7" x="456.7758" y="252.4463">1</text><text fill="#000000" font-family="sans-serif" font-size="13" lengthAdjust="spacing" textLength="20" x="443.1406" y="298.2356">0..*</text></g><!--reverse link Pilar to Actividad--><g id="link_Pilar_Actividad"><path codeLine="49" d="M464,492.12 C464,518.11 464,534.11 464,557.9 " fill="none" id="Pilar-backto-Actividad" style="stroke:#181818;stroke-width:1.0;"/><polygon fill="#181818" points="464,480.12,460,486.12,464,492.12,468,486.12,464,480.12" style="stroke:#181818;stroke-width:1.0;"/><text fill="#000000" font-family="sans-serif" font-size="13" lengthAdjust="spacing" textLength="49" x="465" y="524.4951">contiene</text><text fill="#000000" font-family="sans-serif" font-size="13" lengthAdjust="spacing" textLength="7" x="456.6992" y="501.6643">1</text><text fill="#000000" font-family="sans-serif" font-size="13" lengthAdjust="spacing" textLength="20" x="442.7813" y="547.2121">0..*</text></g><!--SRC=[bLF1JiCm3BttAwoUka4tnh52aoQu824nYIz84rCifSb8CYGqxTz9qpRhker1JtdsUtRzd739h8MLg4cjcKAvIy1_EV2jiTeMy4BMFJmsODbbI5d75CTYe6fJUTvH3ebi4bNaEd035RhdhaesEQbp0wmoM34JscRXJme8e2-0ahpaDqQj1RqJFq_P9maFSmSC_Sp4jVAaDsT8LLtCaTlASL2WvOOsdBGQPJOacS7UjtM3baVcpEVDz0wDXM-mxUbuwY3AGg420XXFVPaHfxvCsNdV7V4zS5QNnCoh4QXEwRT-OuAQBPDorxLeM_KYoWEyZysZvG57oy_QE-ZSHHXtz4M2YMZjge_yrzuep69HVmFxuzZglx6ZxTVeqOKOYqueNPS6JsxVPcmE-XqyeIsb_jmY4wo0Kck9J5ttmNS_F3L85odaXgeFbqDwDvjDq-uv5E3VWIDKcBI1XZdD8wlTu83L1aQimuG3vWy0]--></g></svg>